<?xml version="1.0" encoding="UTF-8" standalone="no"?>
<svg width="76px" height="40px" viewBox="0 0 76 40" version="1.1" xmlns="http://www.w3.org/2000/svg" xmlns:xlink="http://www.w3.org/1999/xlink" xmlns:sketch="http://www.bohemiancoding.com/sketch/ns">
    <!-- Generator: Sketch 3.4.2 (15857) - http://www.bohemiancoding.com/sketch -->
    <title>logo</title>
    <desc>Created with Sketch.</desc>
    <defs></defs>
    <g id="Page-1" stroke="none" stroke-width="1" fill="none" fill-rule="evenodd" sketch:type="MSPage">
        <g id="Projects" sketch:type="MSArtboardGroup" transform="translate(-122.000000, -19.000000)" fill="#1377C9">
            <g id="Header" sketch:type="MSLayerGroup">
                <g id="Page-1" transform="translate(122.000000, 19.000000)" sketch:type="MSShapeGroup">
                    <path d="M75.5361697,1.76892308 C75.5361697,1.20353846 75.0786343,0.745076923 74.5143919,0.745076923 C73.9501495,0.745076923 73.4926141,1.20353846 73.4926141,1.76892308 L73.4926141,37.8658462 L66.5758465,37.8658462 L58.1874424,24.7058462 C63.1942303,23.1635385 66.9105535,18.4843077 66.9105535,12.9827692 C66.9105535,6.19584615 61.3878869,0.745076923 54.5747556,0.745076923 L45.3872,0.745076923 C44.8191192,0.745076923 44.3546747,1.20815385 44.3546747,1.77353846 L44.3546747,38.7950769 C44.3546747,39.4635385 44.8705535,39.8227692 45.3872,39.8227692 C45.9030788,39.8227692 46.4189576,39.4635385 46.4189576,38.7950769 L46.4189576,2.802 L54.5747556,2.802 C60.2517253,2.802 64.845503,7.32661538 64.845503,12.9827692 C64.845503,17.6381538 61.7333414,21.5612308 57.4658263,22.8035385 C56.637503,23.0450769 56.0817051,23.8250769 56.0817051,24.6889231 C56.0817051,25.0666154 56.1891798,25.4350769 56.3918465,25.7527692 L65.0573818,39.3435385 C65.2892202,39.7081538 65.6914828,39.9289231 66.1229172,39.9289231 L74.1643313,39.9289231 C74.9220283,39.9289231 75.5361697,39.3127692 75.5361697,38.5543077 L75.5361697,1.76892308 Z M39.1787677,13.8978462 C39.1787677,8.05092308 34.4598586,3.32323077 28.6255152,3.32323077 L19.0863636,3.32323077 L19.0863636,37.8947692 L28.6255152,37.8947692 C34.4598586,37.8947692 39.1787677,33.1670769 39.1787677,27.3201538 L39.1787677,13.8978462 Z M28.6255152,39.9286154 L18.0714949,39.9286154 C17.5133939,39.9286154 17.0566263,39.4709231 17.0566263,38.9116923 L17.0566263,2.30630769 C17.0566263,1.74707692 17.5133939,1.28938462 18.0714949,1.28938462 L28.6255152,1.28938462 C35.5760606,1.28938462 41.2085051,6.93246154 41.2085051,13.8978462 L41.2085051,27.3201538 C41.2085051,34.2855385 35.5760606,39.9286154 28.6255152,39.9286154 Z M4.22997576,32.5089231 C2.44282424,32.5089231 0.984238384,33.9712308 0.984238384,35.762 C0.984238384,37.552 2.44282424,39.0143077 4.22997576,39.0143077 L8.88593535,39.0143077 C10.6730869,39.0143077 12.1324404,37.552 12.1324404,35.762 C12.1324404,33.9712308 10.6730869,32.5089231 8.88593535,32.5089231 L4.22997576,32.5089231 Z M13.1158343,35.762 C13.1158343,38.0943077 11.214299,39.9996923 8.88593535,39.9996923 L4.22997576,39.9996923 C1.9023798,39.9996923 7.6767677e-05,38.0943077 7.6767677e-05,35.762 C7.6767677e-05,33.4289231 1.9023798,31.5235385 4.22997576,31.5235385 L8.88593535,31.5235385 C11.214299,31.5235385 13.1158343,33.4289231 13.1158343,35.762 Z M1.14744646,25.6288462 L1.14744646,28.0603846 L7.3287798,28.0603846 L7.3287798,25.6288462 C7.3287798,23.9203846 5.96768889,22.5242308 4.2457899,22.5242308 C2.52465859,22.5242308 1.14744646,23.9203846 1.14744646,25.6288462 Z M8.31217374,25.6288462 L8.31217374,28.0603846 L12.4599313,28.0603846 C12.7877293,28.0603846 12.9512444,28.3065385 12.9512444,28.5526923 C12.9512444,28.7996154 12.7877293,29.0457692 12.4599313,29.0457692 L0.656133333,29.0457692 C0.393587879,29.0457692 0.164052525,28.8157692 0.164052525,28.5526923 L0.164052525,25.6288462 C0.164052525,23.3780769 1.98344646,21.5380769 4.22966869,21.5380769 C6.4927798,21.5380769 8.31217374,23.3780769 8.31217374,25.6288462 Z M12.9514747,12.4074615 L12.9514747,18.5674615 C12.9514747,18.8305385 12.7219394,19.0605385 12.4601616,19.0605385 L0.65559596,19.0605385 C0.393050505,19.0605385 0.164282828,18.8305385 0.164282828,18.5674615 L0.164282828,12.4074615 C0.164282828,12.079 0.409939394,11.9151538 0.65559596,11.9151538 C0.902020202,11.9151538 1.14767677,12.079 1.14767677,12.4074615 L1.14767677,18.0751538 L5.77062626,18.0751538 L5.77062626,12.9005385 C5.77062626,12.5720769 6.01705051,12.4074615 6.26270707,12.4074615 C6.50836364,12.4074615 6.75478788,12.5720769 6.75478788,12.9005385 L6.75478788,18.0751538 L11.9680808,18.0751538 L11.9680808,12.4074615 C11.9680808,12.079 12.2137374,11.9151538 12.4601616,11.9151538 C12.7058182,11.9151538 12.9514747,12.079 12.9514747,12.4074615 Z M13.0336162,1.73269231 C13.0336162,1.89730769 12.9353535,2.07807692 12.7219394,2.20884615 L2.40973737,8.45192308 L12.4601616,8.45192308 C12.7879596,8.45192308 12.9514747,8.69807692 12.9514747,8.945 C12.9514747,9.19115385 12.7879596,9.43730769 12.4601616,9.43730769 L0.65559596,9.43730769 C0.295555556,9.43730769 0.0821414141,9.22346154 0.0821414141,8.99423077 C0.0821414141,8.82961538 0.18040404,8.64884615 0.393818182,8.51730769 L10.7060202,2.275 L0.65559596,2.275 C0.328565657,2.275 0.164282828,2.02884615 0.164282828,1.78192308 C0.164282828,1.53576923 0.328565657,1.28884615 0.65559596,1.28884615 L12.4601616,1.28884615 C12.820202,1.28884615 13.0336162,1.50269231 13.0336162,1.73269231 Z" id="logo"></path>
                </g>
            </g>
        </g>
    </g>
</svg>