<?xml version="1.0" encoding="UTF-8" standalone="no"?>
<svg
   xmlns:dc="http://purl.org/dc/elements/1.1/"
   xmlns:cc="http://creativecommons.org/ns#"
   xmlns:rdf="http://www.w3.org/1999/02/22-rdf-syntax-ns#"
   xmlns:svg="http://www.w3.org/2000/svg"
   xmlns="http://www.w3.org/2000/svg"
   viewBox="0 0 102.66667 102.66667"
   height="102.66667"
   width="102.66667"
   xml:space="preserve"
   id="svg2"
   version="1.1"><metadata
     id="metadata8"><rdf:RDF><cc:Work
         rdf:about=""><dc:format>image/svg+xml</dc:format><dc:type
           rdf:resource="http://purl.org/dc/dcmitype/StillImage" /></cc:Work></rdf:RDF></metadata><defs
     id="defs6"><clipPath
       id="clipPath20"
       clipPathUnits="userSpaceOnUse"><path
         style="clip-rule:evenodd"
         id="path18"
         d="M 385,770 C 172.383,770 0,597.617 0,385 0,172.383 172.383,0 385,0 597.617,0 770,172.383 770,385 770,597.617 597.617,770 385,770 Z m 0,-705.832 c -165.035,0 -301.2617,125.285 -318.8438,285.699 l 76.5198,-20.371 43.472,159.871 -92.8511,28.457 C 143.926,628.543 255.512,705.832 385,705.832 c 129.84,0 241.652,-77.672 292.086,-188.84 l -93.266,-27.594 43.473,-159.871 76.488,20.375 C 686.262,189.453 550.035,64.168 385,64.168 Z m -30.031,193.523 -21.528,-29.097 c -5.804,-7.891 -18.32,-9.946 -26.339,-4.012 -8.438,6.16 -10.266,17.969 -4.043,26.406 l 21.496,29.035 c 6.222,8.407 18,10.204 26.406,4.043 8.406,-6.16 10.234,-17.968 4.008,-26.375 z m -38.082,27.852 -21.657,-29.359 c -5.742,-7.829 -18.031,-9.817 -26.277,-3.786 -8.371,6.192 -10.328,17.743 -4.137,26.118 l 21.688,29.324 c 6.129,8.375 17.934,10.203 26.308,4.043 8.438,-6.16 10.297,-18 4.075,-26.34 z m -38.051,27.781 -21.527,-29.097 c -5.84,-7.957 -18.418,-9.883 -26.371,-4.043 -8.407,6.16 -10.235,18 -4.079,26.371 l 21.563,29.101 c 6.129,8.406 17.933,10.235 26.371,4.012 8.437,-6.129 10.203,-17.938 4.043,-26.344 z m 265.715,-14.5 c 7.379,-7.347 7.379,-19.312 0,-26.695 -7.348,-7.344 -19.348,-7.344 -26.66,0 l -54.157,54.16 c -1.765,1.762 -4.621,1.828 -6.484,0.125 -1.988,-1.828 -2.082,-4.937 -0.16,-6.832 l 50.117,-50.144 c 7.344,-7.379 7.344,-19.317 0,-26.696 -7.348,-7.379 -19.316,-7.379 -26.695,0 l -40.746,40.778 c -1.828,1.828 -4.746,1.828 -6.578,0.031 -1.989,-1.828 -1.989,-4.844 -0.094,-6.735 L 466.91,243 c 7.344,-7.379 7.344,-19.281 0,-26.695 -7.348,-7.348 -19.316,-7.348 -26.695,0 l -17.453,17.488 c 4.523,27.848 -15.946,50.562 -40.938,52.742 -6.64,15.785 -21.433,26.34 -38.019,27.754 -6.352,15.27 -20.981,26.309 -38.082,27.816 -13.539,32.309 -57.719,38.274 -78.895,9.399 L 215.055,335.59 c -11.969,4.527 -24.93,8.281 -39.817,11.777 l 34.074,125.254 c 50.821,0.449 90.797,48.606 137.668,18.961 -15.367,-18.961 -27.91,-34.105 -46.906,-45.207 -15.176,-8.855 -22.265,-26.211 -17.676,-43.215 5.805,-21.305 27.399,-36.191 52.649,-36.191 33.367,0 67.887,27.398 94.164,47.097 15.434,-15.398 102.379,-100.933 115.34,-115.242 z M 389.074,256.281 c 8.406,-6.129 10.203,-17.965 4.012,-26.308 l -21.563,-29.196 c -5.773,-7.89 -18.222,-9.976 -26.371,-4.011 -8.406,6.16 -10.203,17.968 -4.074,26.375 l 21.625,29.195 c 6.125,8.277 17.902,10.168 26.371,3.945 z m 171.84,215.535 34.648,-127.464 c -12.414,-5.551 -24.832,-12 -37.792,-19.957 0,0 -83.547,82.453 -108.379,107.285 -13.219,13.254 -22.364,15.047 -37.664,2.73 -19.477,-15.691 -43.313,-31.605 -60.895,-37.797 -34.523,-12.062 -53.387,17.325 -37.312,26.696 32.628,19.023 48.539,46.457 75.906,77.48 7.605,8.629 16.683,11.805 25.894,11.805 10.039,0 20.371,-3.754 29.258,-8.371 40.555,-20.953 77.481,-35.262 116.336,-32.407 z M 424.047,219.191 c 13.023,-13.023 3.398,-26.691 -11.102,-26.691 -3.754,0 -7.894,0.867 -12.031,3.016 6.254,8.504 15.465,19.828 18.895,27.945 l 4.238,-4.27 z" /></clipPath><clipPath
       id="clipPath26"
       clipPathUnits="userSpaceOnUse"><path
         id="path24"
         d="M 0,0 H 770 V 770 H 0 Z" /></clipPath></defs><g
     transform="matrix(1.3333333,0,0,-1.3333333,0,102.66667)"
     id="g10"><g
       transform="scale(0.1)"
       id="g12"><g
         id="g14"><g
           clip-path="url(#clipPath20)"
           id="g16"><g
             clip-path="url(#clipPath26)"
             id="g22"><path
               id="path28"
               style="fill:#68767f;fill-opacity:1;fill-rule:nonzero;stroke:none"
               d="M 0,0 H 820 V 820 H 0 Z" /></g></g></g></g></g></svg>