<?xml version="1.0" encoding="UTF-8" standalone="no"?>
<svg
   xmlns:dc="http://purl.org/dc/elements/1.1/"
   xmlns:cc="http://creativecommons.org/ns#"
   xmlns:rdf="http://www.w3.org/1999/02/22-rdf-syntax-ns#"
   xmlns:svg="http://www.w3.org/2000/svg"
   xmlns="http://www.w3.org/2000/svg"
   viewBox="0 0 108 102.66667"
   height="102.66667"
   width="108"
   xml:space="preserve"
   id="svg2"
   version="1.1"><metadata
     id="metadata8"><rdf:RDF><cc:Work
         rdf:about=""><dc:format>image/svg+xml</dc:format><dc:type
           rdf:resource="http://purl.org/dc/dcmitype/StillImage" /></cc:Work></rdf:RDF></metadata><defs
     id="defs6"><clipPath
       id="clipPath20"
       clipPathUnits="userSpaceOnUse"><path
         style="clip-rule:evenodd"
         id="path18"
         d="M 688,419 427,609 c -13,9 -31,9 -43,0 L 123,419 c -10,-7 -15,-18 -15,-30 V 115 C 108,85 121,57 144,36 166,16 195,5 226,5 h 362 c 31,0 60,11 82,31 23,21 36,49 36,79 v 274 c -3,12 -8,23 -18,30 z M 354.75,5.82422 V 165.75 H 449 V 5 H 354.75 Z M 455,380 h 94.25 V 285.75 H 455 Z m -200,0 h 94.25 V 285.75 H 255 Z M 601.051,58 H 517.91 V 221 H 288.18 V 58 H 205.039 C 178.785,58 158,75.5039 158,98.4766 V 377.434 L 403.047,555.75 648.094,377.434 V 98.4766 C 648.094,76.5977 627.309,58 601.051,58 Z" /></clipPath><clipPath
       id="clipPath26"
       clipPathUnits="userSpaceOnUse"><path
         id="path24"
         d="M 0,0 H 810 V 770 H 0 Z" /></clipPath><clipPath
       id="clipPath36"
       clipPathUnits="userSpaceOnUse"><path
         style="clip-rule:evenodd"
         id="path34"
         d="M 409,766 0,462 45,412 408,683 765,413 l 45,49 z" /></clipPath><clipPath
       id="clipPath42"
       clipPathUnits="userSpaceOnUse"><path
         id="path40"
         d="M 0,0 H 810 V 770 H 0 Z" /></clipPath></defs><g
     transform="matrix(1.3333333,0,0,-1.3333333,0,102.66667)"
     id="g10"><g
       transform="scale(0.1)"
       id="g12"><g
         id="g14"><g
           clip-path="url(#clipPath20)"
           id="g16"><g
             clip-path="url(#clipPath26)"
             id="g22"><path
               id="path28"
               style="fill:#68767f;fill-opacity:1;fill-rule:nonzero;stroke:none"
               d="M 58,0 H 756 V 665.75 H 58 Z" /></g></g></g><g
         id="g30"><g
           clip-path="url(#clipPath36)"
           id="g32"><g
             clip-path="url(#clipPath42)"
             id="g38"><path
               id="path44"
               style="fill:#68767f;fill-opacity:1;fill-rule:nonzero;stroke:none"
               d="M 0,362 H 860 V 816 H 0 Z" /></g></g></g></g></g></svg>