<?xml version="1.0" encoding="UTF-8" standalone="no"?>
<svg
   xmlns:dc="http://purl.org/dc/elements/1.1/"
   xmlns:cc="http://creativecommons.org/ns#"
   xmlns:rdf="http://www.w3.org/1999/02/22-rdf-syntax-ns#"
   xmlns:svg="http://www.w3.org/2000/svg"
   xmlns="http://www.w3.org/2000/svg"
   viewBox="0 0 106.66667 92"
   height="92"
   width="106.66667"
   xml:space="preserve"
   id="svg2"
   version="1.1"><metadata
     id="metadata8"><rdf:RDF><cc:Work
         rdf:about=""><dc:format>image/svg+xml</dc:format><dc:type
           rdf:resource="http://purl.org/dc/dcmitype/StillImage" /></cc:Work></rdf:RDF></metadata><defs
     id="defs6"><clipPath
       id="clipPath20"
       clipPathUnits="userSpaceOnUse"><path
         style="clip-rule:evenodd"
         id="path18"
         d="M 490.578,109.555 V 99.3555 c 0,-11.2891 -8.824,-20.1563 -20.058,-20.1563 -11.231,0 -20.059,8.8672 -20.059,20.1563 v 9.5075 c 5.297,-0.363 10.641,-0.551 16.027,-0.551 8.137,0 16.172,0.422 24.09,1.243 z m -60.457,1.609 V 99.2773 c 0,-11.2851 -8.828,-20.1523 -20.059,-20.1523 -11.234,0 -20.058,8.8672 -20.058,20.1523 v 22.0157 c 12.883,-4.527 26.293,-7.941 40.117,-10.129 z M 369.66,129.555 V 99.3555 c 0,-11.2891 -8.824,-20.1563 -20.058,-20.1563 -11.231,0 -20.059,8.8672 -20.059,20.1563 v 54.0035 c 12.461,-9.222 25.895,-17.214 40.117,-23.804 z m -60.461,40.75 V 99.0312 c 0,-11.2851 -8.824,-20.1523 -20.054,-20.1523 -11.235,0 -20.059,8.8672 -20.059,20.1523 V 219.93 c 11.016,-18.368 24.543,-35.063 40.113,-49.625 z m -80.515,223.578 c 11.234,0 20.058,-8.867 20.058,-20.153 V 98.8398 c 0,-11.2851 -8.824,-20.1523 -20.058,-20.1523 -11.235,0 -20.059,8.8672 -20.059,20.1523 V 373.73 c 0,10.477 8.824,20.153 20.059,20.153 z m -40.403,-181 V 99.2188 c 0,-11.2852 -8.824,-20.1524 -20.058,-20.1524 -11.231,0 -20.055,8.8672 -20.055,20.1524 V 212.883 c 0,10.48 8.824,20.152 20.055,20.152 11.234,0 20.058,-8.867 20.058,-20.152 z m -60.457,80.422 V 99.0312 c 0,-11.2851 -8.828,-20.1523 -20.058,-20.1523 -11.2348,0 -20.059,8.8672 -20.059,20.1523 V 293.305 c 0,10.48 8.8242,20.156 20.059,20.156 11.23,0 20.058,-8.867 20.058,-20.156 z M 474.551,0.800781 C 522.113,0.800781 560,38.5117 560,85.8477 v 45.7343 c -12.898,-5.617 -26.602,-10.43 -40.305,-13.641 V 85.8477 c 0,-24.8711 -20.156,-44.9297 -45.144,-44.9297 H 95.6719 c -24.9883,0 -45.1407,20.0586 -45.1407,44.9297 V 499.047 h 71.7458 c 46.754,0 45.946,0 85.446,0 v 150.035 h 266.828 c 24.988,0 45.144,-20.059 45.144,-44.93 v -45.734 c 13.703,-3.207 27.407,-8.023 40.305,-13.641 v 59.375 c 0,47.336 -37.887,85.047 -85.449,85.047 H 194.828 c -4.84,0 -9.676,-0.804 -14.512,-2.41 -4.836,-1.601 -8.867,-4.812 -12.093,-8.023 L 21.5117,538.359 c -4.0312,-3.207 -6.4492,-8.023 -8.8672,-12.836 -2.4218,-4.812 -3.22653,-9.628 -3.22653,-15.246 V 85.0469 C 10.2227,39.3125 48.1133,0.800781 95.6719,0.800781 Z M 600.305,469.359 c 66.91,-66.593 72.55,-170.894 16.929,-243.906 l 20.153,-20.058 7.258,7.222 139.457,-138.8045 c 13.703,-13.6367 13.703,-36.1016 0,-49.7422 -7.254,-7.2226 -16.122,-10.4297 -24.989,-10.4297 -8.867,0 -17.734,3.2071 -24.992,10.4297 l -140.266,138.8007 7.258,7.223 -20.152,20.058 c -33.051,-24.875 -73.359,-37.711 -112.859,-37.711 -47.563,0 -95.93,18.454 -132.204,54.559 -73.359,73.012 -73.359,190.152 0,263.164 36.274,36.102 83.836,53.754 132.204,53.754 47.562,0 95.929,-18.453 132.203,-54.559 z m -132.203,6.418 c -35.469,0 -70.938,-13.636 -97.54,-40.113 -54.011,-53.758 -54.011,-140.41 0,-194.164 26.602,-26.477 62.071,-40.117 97.54,-40.117 35.468,0 70.937,13.64 97.543,40.117 54.007,53.754 54.007,140.406 0,194.164 -27.411,26.477 -62.075,40.113 -97.543,40.113 z m -53.204,-183.73 10.481,-10.43 3.223,-3.211 c 8.062,-8.023 20.96,-8.023 28.214,0 l 92.704,92.27 c 8.062,8.023 8.062,20.859 0,28.078 -8.059,8.023 -20.958,8.023 -28.215,0 l -77.387,-77.824 -29.824,29.687 c -8.063,8.024 -20.961,8.024 -28.215,0 -8.063,-8.023 -8.063,-20.863 0,-28.082 l 29.019,-30.488 z" /></clipPath><clipPath
       id="clipPath26"
       clipPathUnits="userSpaceOnUse"><path
         id="path24"
         d="M 0,0 H 800 V 690 H 0 Z" /></clipPath></defs><g
     transform="matrix(1.3333333,0,0,-1.3333333,0,92)"
     id="g10"><g
       transform="scale(0.1)"
       id="g12"><g
         id="g14"><g
           clip-path="url(#clipPath20)"
           id="g16"><g
             clip-path="url(#clipPath26)"
             id="g22"><path
               id="path28"
               style="fill:#68767f;fill-opacity:1;fill-rule:nonzero;stroke:none"
               d="M 0,0 H 844.379 V 739.199 H 0 Z" /></g></g></g></g></g></svg>