<?xml version="1.0" encoding="UTF-8" standalone="no"?>
<svg
   xmlns:dc="http://purl.org/dc/elements/1.1/"
   xmlns:cc="http://creativecommons.org/ns#"
   xmlns:rdf="http://www.w3.org/1999/02/22-rdf-syntax-ns#"
   xmlns:svg="http://www.w3.org/2000/svg"
   xmlns="http://www.w3.org/2000/svg"
   viewBox="0 0 134.66667 113.33333"
   height="113.33333"
   width="134.66667"
   xml:space="preserve"
   id="svg2"
   version="1.1"><metadata
     id="metadata8"><rdf:RDF><cc:Work
         rdf:about=""><dc:format>image/svg+xml</dc:format><dc:type
           rdf:resource="http://purl.org/dc/dcmitype/StillImage" /></cc:Work></rdf:RDF></metadata><defs
     id="defs6"><clipPath
       id="clipPath20"
       clipPathUnits="userSpaceOnUse"><path
         style="clip-rule:evenodd"
         id="path18"
         d="m 335.426,761.32 c 0,47.668 -38.922,86.309 -86.942,86.309 -48.015,0 -86.941,-38.641 -86.941,-86.309 0,-47.672 38.926,-86.312 86.941,-86.312 48.02,0 86.942,38.64 86.942,86.312 z" /></clipPath><clipPath
       id="clipPath26"
       clipPathUnits="userSpaceOnUse"><path
         id="path24"
         d="M 0,0 H 1010 V 850 H 0 Z" /></clipPath><clipPath
       id="clipPath36"
       clipPathUnits="userSpaceOnUse"><path
         style="clip-rule:evenodd"
         id="path34"
         d="m 755.445,639.793 c 45.879,0 83.078,36.926 83.078,82.473 0,45.543 -37.199,82.472 -83.078,82.472 -45.879,0 -83.074,-36.929 -83.074,-82.472 0,-45.547 37.195,-82.473 83.074,-82.473" /></clipPath><clipPath
       id="clipPath42"
       clipPathUnits="userSpaceOnUse"><path
         id="path40"
         d="M 0,0 H 1010 V 850 H 0 Z" /></clipPath><clipPath
       id="clipPath54"
       clipPathUnits="userSpaceOnUse"><path
         style="clip-rule:evenodd"
         id="path52"
         d="m 580.551,312.105 c 12.687,95.512 34.949,155.18 56.937,192.407 5.703,9.656 11.391,17.8 16.887,24.676 L 632.918,424.496 c -14.969,-73.031 260.008,-72.922 245.027,0.164 -7.133,34.797 -21.394,104.387 -21.394,104.387 5.5,-6.906 11.183,-15.117 16.906,-24.82 21.957,-37.274 44.246,-96.911 56.887,-192.122 1.664,-12.535 12.453,-21.671 24.871,-21.671 1.094,0 2.203,0.062 3.312,0.222 13.75,1.793 23.43,14.324 21.61,27.977 -24.715,186.144 -85.77,255.344 -126.246,281.058 -16.524,10.489 -29.625,13.747 -35.407,14.719 -6.625,1.652 -34.617,8.149 -63.035,8.149 -28.422,0 -56.414,-6.497 -63.039,-8.149 -5.781,-0.972 -18.883,-4.23 -35.422,-14.734 -40.476,-25.699 -101.515,-94.914 -126.246,-281.043 -1.804,-13.653 7.875,-26.184 21.625,-27.977 13.75,-1.808 26.363,7.817 28.184,21.449 z" /></clipPath><clipPath
       id="clipPath60"
       clipPathUnits="userSpaceOnUse"><path
         id="path58"
         d="M 0,0 H 1010 V 850 H 0 Z" /></clipPath><clipPath
       id="clipPath70"
       clipPathUnits="userSpaceOnUse"><path
         style="clip-rule:evenodd"
         id="path68"
         d="m 143.984,425.168 c 0,-35.727 48.243,-53.856 98.371,-55.035 54.215,-1.278 110.633,17.262 110.633,54.789 v 135.812 c 17.27,-35.668 32.653,-107.523 24.715,-242.289 -1,-16.922 12.008,-31.437 29.055,-32.429 0.617,-0.047 1.219,-0.063 1.836,-0.063 16.238,0 29.863,12.598 30.828,28.906 9.555,162.051 -10.867,267.77 -60.692,314.243 -21.625,20.16 -42.742,23.683 -53.656,23.953 -0.648,0.047 -1.281,0.093 -1.949,0.093 H 173.848 c -0.668,0 -1.301,-0.046 -1.95,-0.093 -10.902,-0.27 -32.035,-3.778 -53.675,-23.953 C 68.418,582.645 47.9961,476.91 57.5508,314.859 c 0.9648,-16.324 14.5742,-28.906 30.8281,-28.906 0.6172,0 1.2188,0.016 1.8359,0.063 17.0472,0.992 30.0552,15.507 29.0552,32.429 -7.938,134.782 7.445,206.621 24.714,242.289 z" /></clipPath><clipPath
       id="clipPath76"
       clipPathUnits="userSpaceOnUse"><path
         id="path74"
         d="M 0,0 H 1010 V 850 H 0 Z" /></clipPath><clipPath
       id="clipPath86"
       clipPathUnits="userSpaceOnUse"><path
         style="clip-rule:evenodd"
         id="path84"
         d="m 726.684,203.555 c -3.11,2.57 -7.168,3.379 -11.157,1.875 -3.789,-1.41 -6.539,-4.735 -7.203,-8.723 L 689.125,82.5 c -0.676,-3.9883 0.84,-8.0312 3.961,-10.6016 2.937,-2.4296 6.883,-3.2031 10.508,-2.0976 0.211,0.0664 0.429,0.1367 0.648,0.2226 L 812.75,110.5 c 3.785,1.41 6.535,4.738 7.199,8.727 0.676,3.984 -0.836,8.027 -3.957,10.597 l -89.308,73.731 z M 714.699,98.0742 727.398,173.625 786.477,124.852 714.699,98.0742 Z" /></clipPath><clipPath
       id="clipPath92"
       clipPathUnits="userSpaceOnUse"><path
         id="path90"
         d="M 0,0 H 1010 V 850 H 0 Z" /></clipPath><clipPath
       id="clipPath102"
       clipPathUnits="userSpaceOnUse"><path
         style="clip-rule:evenodd"
         id="path100"
         d="m 422.918,349.066 c -2.188,2.047 -5.016,3.086 -8.121,3.039 -2.996,-0.105 -5.836,-1.398 -7.879,-3.593 l -65.719,-70.446 c -4.265,-4.57 -4.011,-11.73 0.555,-15.992 l 70.445,-65.722 c 2.102,-1.961 4.863,-3.043 7.727,-3.043 0.129,0 0.262,0 0.394,0.003 2.996,0.106 5.836,1.399 7.879,3.59 l 65.719,70.45 c 4.266,4.57 4.012,11.73 -0.551,15.988 l -70.449,65.726 z m -3.547,-128.449 -53.906,50.281 50.281,53.899 53.906,-50.281 -50.281,-53.899 z" /></clipPath><clipPath
       id="clipPath108"
       clipPathUnits="userSpaceOnUse"><path
         id="path106"
         d="M 0,0 H 1010 V 850 H 0 Z" /></clipPath><clipPath
       id="clipPath118"
       clipPathUnits="userSpaceOnUse"><path
         style="clip-rule:evenodd"
         id="path116"
         d="m 536.078,156.695 c -2.191,2.051 -5.019,3.09 -8.125,3.039 -2.992,-0.105 -5.832,-1.398 -7.879,-3.589 L 454.359,85.6953 C 450.094,81.125 450.348,73.9648 454.91,69.707 L 525.359,3.98438 c 2.098,-1.96485 4.86,-3.04688 7.723,-3.04688 0.133,0 0.266,0 0.398,0.007812 2.993,0.105468 5.832,1.394528 7.879,3.589848 l 65.719,70.44924 c 4.266,4.5664 4.008,11.7304 -0.555,15.9883 L 536.078,156.695 Z M 532.527,28.25 478.625,78.5312 528.906,132.43 582.809,82.1484 532.527,28.25 Z" /></clipPath><clipPath
       id="clipPath124"
       clipPathUnits="userSpaceOnUse"><path
         id="path122"
         d="M 0,0 H 1010 V 850 H 0 Z" /></clipPath><clipPath
       id="clipPath134"
       clipPathUnits="userSpaceOnUse"><path
         style="clip-rule:evenodd"
         id="path132"
         d="m 587.535,352.105 c -37.672,0 -68.324,-30.648 -68.324,-68.324 0,-37.679 30.652,-68.328 68.324,-68.328 37.672,0 68.328,30.649 68.328,68.328 0,37.676 -30.656,68.324 -68.328,68.324 z m 0,-114.019 c -25.195,0 -45.691,20.5 -45.691,45.695 0,25.196 20.496,45.692 45.691,45.692 25.195,0 45.695,-20.496 45.695,-45.692 0,-25.195 -20.5,-45.695 -45.695,-45.695 z" /></clipPath><clipPath
       id="clipPath140"
       clipPathUnits="userSpaceOnUse"><path
         id="path138"
         d="M 0,0 H 1010 V 850 H 0 Z" /></clipPath><clipPath
       id="clipPath150"
       clipPathUnits="userSpaceOnUse"><path
         style="clip-rule:evenodd"
         id="path148"
         d="m 225.43,216.316 c -37.672,0 -68.325,-30.648 -68.325,-68.328 0,-37.676 30.653,-68.3239 68.325,-68.3239 37.672,0 68.328,30.6479 68.328,68.3239 0,37.68 -30.656,68.328 -68.328,68.328 z m 0,-114.019 c -25.196,0 -45.692,20.496 -45.692,45.691 0,25.196 20.496,45.696 45.692,45.696 25.195,0 45.695,-20.5 45.695,-45.696 0,-25.195 -20.5,-45.691 -45.695,-45.691 z" /></clipPath><clipPath
       id="clipPath156"
       clipPathUnits="userSpaceOnUse"><path
         id="path154"
         d="M 0,0 H 1010 V 850 H 0 Z" /></clipPath></defs><g
     transform="matrix(1.3333333,0,0,-1.3333333,0,113.33333)"
     id="g10"><g
       transform="scale(0.1)"
       id="g12"><g
         id="g14"><g
           clip-path="url(#clipPath20)"
           id="g16"><g
             clip-path="url(#clipPath26)"
             id="g22"><path
               id="path28"
               style="fill:#68767f;fill-opacity:1;fill-rule:nonzero;stroke:none"
               d="M 111.543,625.008 H 385.426 V 897.629 H 111.543 Z" /></g></g></g><g
         id="g30"><g
           clip-path="url(#clipPath36)"
           id="g32"><g
             clip-path="url(#clipPath42)"
             id="g38"><path
               id="path44"
               style="fill:#68767f;fill-opacity:1;fill-rule:nonzero;stroke:none"
               d="M 622.371,589.793 H 888.523 V 854.738 H 622.371 Z" /></g></g></g><path
         id="path46"
         style="fill:none;stroke:#68767f;stroke-width:20;stroke-linecap:square;stroke-linejoin:miter;stroke-miterlimit:10;stroke-dasharray:none;stroke-opacity:1"
         d="M 10,431.316 H 994.473" /><g
         id="g48"><g
           clip-path="url(#clipPath54)"
           id="g50"><g
             clip-path="url(#clipPath60)"
             id="g56"><path
               id="path62"
               style="fill:#68767f;fill-opacity:1;fill-rule:nonzero;stroke:none"
               d="m 480.527,240.434 h 549.828 V 672.559 H 480.527 Z" /></g></g></g><g
         id="g64"><g
           clip-path="url(#clipPath70)"
           id="g66"><g
             clip-path="url(#clipPath76)"
             id="g72"><path
               id="path78"
               style="fill:#68767f;fill-opacity:1;fill-rule:nonzero;stroke:none"
               d="m 5.26172,235.953 h 486.445 V 703.148 H 5.26172 Z" /></g></g></g><g
         id="g80"><g
           clip-path="url(#clipPath86)"
           id="g82"><g
             clip-path="url(#clipPath92)"
             id="g88"><path
               id="path94"
               style="fill:#68767f;fill-opacity:1;fill-rule:nonzero;stroke:none"
               d="M 593.43,220.414 821.254,290.066 887.398,73.7109 659.574,4.05859" /></g></g></g><g
         id="g96"><g
           clip-path="url(#clipPath102)"
           id="g98"><g
             clip-path="url(#clipPath108)"
             id="g104"><path
               id="path110"
               style="fill:#68767f;fill-opacity:1;fill-rule:nonzero;stroke:none"
               d="M 288.156,143.309 H 546.961 V 402.106 H 288.156 Z" /></g></g></g><g
         id="g112"><g
           clip-path="url(#clipPath118)"
           id="g114"><g
             clip-path="url(#clipPath124)"
             id="g120"><path
               id="path126"
               style="fill:#68767f;fill-opacity:1;fill-rule:nonzero;stroke:none"
               d="M 401.316,0 H 660.117 V 209.738 H 401.316 Z" /></g></g></g><g
         id="g128"><g
           clip-path="url(#clipPath134)"
           id="g130"><g
             clip-path="url(#clipPath140)"
             id="g136"><path
               id="path142"
               style="fill:#68767f;fill-opacity:1;fill-rule:nonzero;stroke:none"
               d="M 469.211,165.453 H 705.863 V 402.105 H 469.211 Z" /></g></g></g><g
         id="g144"><g
           clip-path="url(#clipPath150)"
           id="g146"><g
             clip-path="url(#clipPath156)"
             id="g152"><path
               id="path158"
               style="fill:#68767f;fill-opacity:1;fill-rule:nonzero;stroke:none"
               d="m 107.105,29.6641 h 236.652 v 236.652 H 107.105 Z" /></g></g></g></g></g></svg>