<?xml version="1.0" encoding="UTF-8" standalone="no"?>
<svg
   xmlns:dc="http://purl.org/dc/elements/1.1/"
   xmlns:cc="http://creativecommons.org/ns#"
   xmlns:rdf="http://www.w3.org/1999/02/22-rdf-syntax-ns#"
   xmlns:svg="http://www.w3.org/2000/svg"
   xmlns="http://www.w3.org/2000/svg"
   viewBox="0 0 92 86.666664"
   height="86.666664"
   width="92"
   xml:space="preserve"
   id="svg2"
   version="1.1"><metadata
     id="metadata8"><rdf:RDF><cc:Work
         rdf:about=""><dc:format>image/svg+xml</dc:format><dc:type
           rdf:resource="http://purl.org/dc/dcmitype/StillImage" /></cc:Work></rdf:RDF></metadata><defs
     id="defs6"><clipPath
       id="clipPath20"
       clipPathUnits="userSpaceOnUse"><path
         style="clip-rule:evenodd"
         id="path18"
         d="m 547.254,343.648 c -10.945,0 -19.816,-8.89 -19.816,-19.867 V 182.043 L 303.359,57.5195 V 338.602 l 100.918,56.078 c 9.571,5.32 13.028,17.414 7.723,27.011 -5.32,9.59 -17.375,13.055 -26.938,7.739 L 283.535,373.012 62.9766,495.578 283.543,601.742 l 98.973,-47.57 c 9.875,-4.75 21.707,-0.567 26.441,9.324 4.746,9.895 0.57,21.754 -9.297,26.504 l -107.547,51.688 c -5.425,2.609 -11.738,2.601 -17.156,-0.008 L 11.2383,514.75 c -0.0391,-0.012 -0.0742,-0.039 -0.1172,-0.066 -0.7695,-0.375 -1.50782,-0.805 -2.23438,-1.282 -0.10156,-0.066 -0.20703,-0.144 -0.3086,-0.218 C 7.96875,512.762 7.375,512.305 6.81641,511.805 6.69922,511.711 6.57422,511.605 6.46484,511.5 5.84375,510.926 5.25,510.332 4.69922,509.676 4.65625,509.621 4.61719,509.559 4.56641,509.512 4.09766,508.938 3.65625,508.336 3.25,507.699 3.11719,507.492 2.98828,507.285 2.86328,507.074 2.73828,506.883 2.60938,506.688 2.49219,506.48 2.28516,506.113 2.11719,505.734 1.9375,505.359 1.85547,505.188 1.76562,505.027 1.69922,504.855 1.35938,504.09 1.07031,503.309 0.835938,502.52 0.792969,502.383 0.765625,502.242 0.722656,502.105 0.53125,501.398 0.378906,500.695 0.261719,499.973 0.234375,499.801 0.207031,499.629 0.1875,499.457 0.0703125,498.598 0.0078125,497.742 0.0078125,496.883 0.0078125,496.875 0,496.863 0,496.848 V 170.34 c 0,-7.219 3.90625,-13.871 10.2109,-17.367 L 273.922,6.41797 h 0.027 c 0.692,-0.41016 1.422,-0.74219 2.168,-1.03906 0.125,-0.05469 0.25,-0.08985 0.371,-0.14453 0.594,-0.22266 1.203,-0.42969 1.832,-0.58594 0.192,-0.0625 0.391,-0.11328 0.586,-0.16016 0.571,-0.14062 1.153,-0.25 1.739,-0.32422 0.191,-0.03515 0.386,-0.07812 0.585,-0.10547 0.75,-0.07421 1.524,-0.13671 2.305,-0.13671 0.781,0 1.547,0.0625 2.297,0.13671 0.199,0.02735 0.395,0.07032 0.586,0.10547 0.586,0.07422 1.176,0.1836 1.738,0.32422 0.196,0.05469 0.395,0.10156 0.59,0.16016 0.621,0.15625 1.234,0.36328 1.828,0.58594 0.121,0.05468 0.246,0.08984 0.371,0.14453 0.754,0.29687 1.469,0.63671 2.172,1.03906 h 0.024 L 556.852,152.973 c 6.3,3.496 10.21,10.148 10.21,17.367 v 153.441 c 0.02,10.977 -8.851,19.867 -19.808,19.867 z M 263.719,57.5195 39.6406,182.043 V 463.117 L 263.719,338.602 V 57.5195 Z" /></clipPath><clipPath
       id="clipPath26"
       clipPathUnits="userSpaceOnUse"><path
         id="path24"
         d="M 0,0 H 690 V 650 H 0 Z" /></clipPath><clipPath
       id="clipPath36"
       clipPathUnits="userSpaceOnUse"><path
         style="clip-rule:evenodd"
         id="path34"
         d="m 547.254,638.645 c -78.027,0 -141.492,-63.61 -141.492,-141.797 0,-78.184 63.465,-141.797 141.492,-141.797 78.016,0 141.496,63.613 141.496,141.797 0,78.187 -63.48,141.797 -141.496,141.797 z m 0,-243.868 c -56.16,0 -101.844,45.793 -101.844,102.067 0,56.277 45.684,102.07 101.844,102.07 56.152,0 101.851,-45.793 101.851,-102.07 0,-56.274 -45.699,-102.067 -101.851,-102.067 z" /></clipPath><clipPath
       id="clipPath42"
       clipPathUnits="userSpaceOnUse"><path
         id="path40"
         d="M 0,0 H 690 V 650 H 0 Z" /></clipPath><clipPath
       id="clipPath52"
       clipPathUnits="userSpaceOnUse"><path
         style="clip-rule:evenodd"
         id="path50"
         d="m 531.34,483.426 c -2.656,-3.434 -8.617,-9.211 -18.766,-9.211 -12.801,0 -22.461,9.73 -22.461,22.633 0,12.691 9.571,22.625 21.797,22.625 5.93,0 11.621,-2.418 15.996,-6.817 l 2.883,-2.883 15.125,16.016 -2.82,2.731 c -8.117,7.867 -19.141,12.203 -31.074,12.203 -25.52,0 -44.774,-18.864 -44.774,-43.875 0,-25.012 19.344,-43.875 44.996,-43.875 14.504,0 27.488,5.961 35.625,16.375 l 2.313,2.933 -16.242,14.52 -2.598,-3.375 z" /></clipPath><clipPath
       id="clipPath58"
       clipPathUnits="userSpaceOnUse"><path
         id="path56"
         d="M 0,0 H 690 V 650 H 0 Z" /></clipPath><clipPath
       id="clipPath68"
       clipPathUnits="userSpaceOnUse"><path
         style="clip-rule:evenodd"
         id="path66"
         d="m 545.781,496.848 c 0,-25.012 19.348,-43.875 44.996,-43.875 14.504,0 27.477,5.961 35.641,16.375 l 2.297,2.933 -16.235,14.52 -2.609,-3.367 c -2.664,-3.438 -8.625,-9.211 -18.777,-9.211 -12.797,0 -22.457,9.73 -22.457,22.632 0,12.688 9.57,22.625 21.797,22.625 5.925,0 11.617,-2.418 16.007,-6.816 l 2.871,-2.883 15.11,16.012 -2.809,2.734 c -8.105,7.868 -19.14,12.203 -31.07,12.203 -25.516,-0.007 -44.762,-18.871 -44.762,-43.882 z" /></clipPath><clipPath
       id="clipPath74"
       clipPathUnits="userSpaceOnUse"><path
         id="path72"
         d="M 0,0 H 690 V 650 H 0 Z" /></clipPath></defs><g
     transform="matrix(1.3333333,0,0,-1.3333333,0,86.666667)"
     id="g10"><g
       transform="scale(0.1)"
       id="g12"><g
         id="g14"><g
           clip-path="url(#clipPath20)"
           id="g16"><g
             clip-path="url(#clipPath26)"
             id="g22"><path
               id="path28"
               style="fill:#68767f;fill-opacity:1;fill-rule:nonzero;stroke:none"
               d="M 0,0 H 617.062 V 693.641 H 0 Z" /></g></g></g><g
         id="g30"><g
           clip-path="url(#clipPath36)"
           id="g32"><g
             clip-path="url(#clipPath42)"
             id="g38"><path
               id="path44"
               style="fill:#68767f;fill-opacity:1;fill-rule:nonzero;stroke:none"
               d="M 355.762,305.051 H 738.75 V 688.645 H 355.762 Z" /></g></g></g><g
         id="g46"><g
           clip-path="url(#clipPath52)"
           id="g48"><g
             clip-path="url(#clipPath58)"
             id="g54"><path
               id="path60"
               style="fill:#68767f;fill-opacity:1;fill-rule:nonzero;stroke:none"
               d="M 417.246,402.973 H 600.18 v 187.75 H 417.246 Z" /></g></g></g><g
         id="g62"><g
           clip-path="url(#clipPath68)"
           id="g64"><g
             clip-path="url(#clipPath74)"
             id="g70"><path
               id="path76"
               style="fill:#68767f;fill-opacity:1;fill-rule:nonzero;stroke:none"
               d="M 495.781,402.973 H 678.715 V 590.731 H 495.781 Z" /></g></g></g></g></g></svg>