<?xml version="1.0" encoding="UTF-8" standalone="no"?>
<svg
   xmlns:dc="http://purl.org/dc/elements/1.1/"
   xmlns:cc="http://creativecommons.org/ns#"
   xmlns:rdf="http://www.w3.org/1999/02/22-rdf-syntax-ns#"
   xmlns:svg="http://www.w3.org/2000/svg"
   xmlns="http://www.w3.org/2000/svg"
   viewBox="0 0 109.33333 92"
   height="92"
   width="109.33333"
   xml:space="preserve"
   id="svg2"
   version="1.1"><metadata
     id="metadata8"><rdf:RDF><cc:Work
         rdf:about=""><dc:format>image/svg+xml</dc:format><dc:type
           rdf:resource="http://purl.org/dc/dcmitype/StillImage" /></cc:Work></rdf:RDF></metadata><defs
     id="defs6"><clipPath
       id="clipPath20"
       clipPathUnits="userSpaceOnUse"><path
         style="clip-rule:evenodd"
         id="path18"
         d="m 318.246,144.082 h 426.172 c 27.543,0 50.008,22.359 50.008,49.938 v 416.042 c 0,27.606 -22.391,49.938 -50.008,49.938 L 80.0078,660 C 52.4648,660 30,637.641 30,610.062 V 194.02 c 0,-27.602 22.3906,-49.938 50.0078,-49.938 H 131.312 L 94.3516,53.1133 Z m 0,0 h 426.172 c 27.543,0 50.008,22.359 50.008,49.938 v 416.042 c 0,27.606 -22.391,49.938 -50.008,49.938 L 80.0078,660 C 52.4648,660 30,637.641 30,610.062 V 194.02 c 0,-27.602 22.3906,-49.938 50.0078,-49.938 H 131.312 L 94.3516,53.1133 Z" /></clipPath><clipPath
       id="clipPath26"
       clipPathUnits="userSpaceOnUse"><path
         id="path24"
         d="M 0,0 H 820 V 690 H 0 Z" /></clipPath><clipPath
       id="clipPath38"
       clipPathUnits="userSpaceOnUse"><path
         style="clip-rule:evenodd"
         id="path36"
         d="m 138.426,349.602 8.496,-11.141 2.613,-3.43 c 6.535,-8.57 16.992,-8.57 22.875,0 l 75.149,98.547 c 6.535,8.57 6.535,22.281 0,29.996 -6.536,8.567 -16.989,8.567 -22.871,0 l -62.735,-83.125 -24.18,31.707 c -6.535,8.571 -16.992,8.571 -22.871,0 -6.535,-8.57 -6.535,-22.281 0,-29.992 l 23.524,-32.562 z" /></clipPath><clipPath
       id="clipPath44"
       clipPathUnits="userSpaceOnUse"><path
         id="path42"
         d="M 0,0 H 820 V 690 H 0 Z" /></clipPath><clipPath
       id="clipPath54"
       clipPathUnits="userSpaceOnUse"><path
         style="clip-rule:evenodd"
         id="path52"
         d="m 650.914,569.887 -78.98,-12.77 -48.954,8.301 c 3.485,-6.223 5.801,-12.828 7.836,-19.789 l 38.508,-6.383 -0.652,-116.82 -36.551,-3.832 -11.75,47.875 c -0.105,-0.141 -0.578,-0.531 -0.652,-0.637 l -5.875,-10.211 10.441,-43.41 c 0.543,-2.191 2.285,-3.449 4.57,-3.191 l 39.817,4.468 v -45.316 l -70.492,-8.934 0.656,70.848 -9.789,-15.32 v -56.809 l -74.41,-29.367 v 33.832 l -9.789,16.598 -66.571,-10.215 v 181.293 c 1.395,-0.223 3.602,-0.391 5.219,-0.641 2.098,6.121 4.582,11.734 7.832,17.238 -7.207,1.16 -17.703,2.782 -20.234,3.192 C 325.547,570.762 320,566.438 320,560.945 V 258.371 c 0,-4.328 2.816,-8.191 7.18,-8.937 l 80.925,-13.411 h 3.915 l 78.98,13.411 78.977,-13.411 h 3.914 l 80.937,13.411 c 4.352,0.746 7.18,4.609 7.18,8.937 v 302.582 c 0.004,5.485 -5.543,9.813 -11.094,8.934 z M 404.848,255.184 338.277,266.672 v 40.851 l 66.571,9.579 v -61.918 z m 0.652,70.214 -67.223,-8.933 v 43.406 l 67.223,10.852 v -45.325 z m 82.891,-58.089 -74.411,-12.77 v 65.113 l 75.059,28.727 -0.648,-81.07 z m 79.629,-12.77 -70.493,12.133 0.653,83.625 70.492,8.937 -0.652,-104.695 z m 75.714,12.133 -66.574,-11.488 0.652,106.605 65.926,20.426 V 266.672 Z m 0,125.121 -65.925,-20.426 v 45.309 l 65.925,30.64 v -55.523 z m 0,65.102 -65.925,-31.278 0.656,113.629 65.269,10.852 v -93.203 z" /></clipPath><clipPath
       id="clipPath60"
       clipPathUnits="userSpaceOnUse"><path
         id="path58"
         d="M 0,0 H 820 V 690 H 0 Z" /></clipPath><clipPath
       id="clipPath70"
       clipPathUnits="userSpaceOnUse"><path
         style="clip-rule:evenodd"
         id="path68"
         d="m 374.391,472.328 69.359,-118.062 69.363,118.062 c 1.067,1.539 1.992,3.184 2.934,4.801 l 0.676,0.961 c 6.793,11.836 10.785,25.441 10.785,39.996 0,45.242 -37.504,81.914 -83.754,81.914 C 397.496,600 360,563.328 360,518.086 c 0,-14.547 3.992,-28.16 10.801,-39.996 1.113,-1.969 2.301,-3.906 3.59,-5.762 z m 69.359,86.715 c 23.125,0 41.883,-18.344 41.883,-40.961 0,-22.621 -18.758,-40.957 -41.883,-40.957 -23.129,0 -41.887,18.336 -41.887,40.957 0,22.617 18.758,40.961 41.887,40.961 z" /></clipPath><clipPath
       id="clipPath76"
       clipPathUnits="userSpaceOnUse"><path
         id="path74"
         d="M 0,0 H 820 V 690 H 0 Z" /></clipPath></defs><g
     transform="matrix(1.3333333,0,0,-1.3333333,0,92)"
     id="g10"><g
       transform="scale(0.1)"
       id="g12"><g
         id="g14"><g
           clip-path="url(#clipPath20)"
           id="g16"><g
             clip-path="url(#clipPath26)"
             id="g22"><path
               id="path28"
               style="fill:#68767f;fill-opacity:1;fill-rule:nonzero;stroke:none"
               d="m 0,3.11328 h 844.426 v 706.887 H 0 Z" /></g></g></g><path
         id="path30"
         style="fill:none;stroke:#68767f;stroke-width:50;stroke-linecap:butt;stroke-linejoin:miter;stroke-miterlimit:10;stroke-dasharray:none;stroke-opacity:1"
         d="m 318.246,144.082 h 426.172 c 27.543,0 50.008,22.359 50.008,49.938 v 416.042 c 0,27.606 -22.391,49.938 -50.008,49.938 L 80.0078,660 C 52.4648,660 30,637.641 30,610.062 V 194.02 c 0,-27.602 22.3906,-49.938 50.0078,-49.938 H 131.312 L 94.3516,53.1133 Z m 0,0 h 426.172 c 27.543,0 50.008,22.359 50.008,49.938 v 416.042 c 0,27.606 -22.391,49.938 -50.008,49.938 L 80.0078,660 C 52.4648,660 30,637.641 30,610.062 V 194.02 c 0,-27.602 22.3906,-49.938 50.0078,-49.938 H 131.312 L 94.3516,53.1133 Z" /><g
         id="g32"><g
           clip-path="url(#clipPath38)"
           id="g34"><g
             clip-path="url(#clipPath44)"
             id="g40"><path
               id="path46"
               style="fill:#68767f;fill-opacity:1;fill-rule:nonzero;stroke:none"
               d="M 60,278.605 H 302.461 V 520 H 60 Z" /></g></g></g><g
         id="g48"><g
           clip-path="url(#clipPath54)"
           id="g50"><g
             clip-path="url(#clipPath60)"
             id="g56"><path
               id="path62"
               style="fill:#68767f;fill-opacity:1;fill-rule:nonzero;stroke:none"
               d="M 270,186.023 H 712.008 V 620 H 270 Z" /></g></g></g><g
         id="g64"><g
           clip-path="url(#clipPath70)"
           id="g66"><g
             clip-path="url(#clipPath76)"
             id="g72"><path
               id="path78"
               style="fill:#68767f;fill-opacity:1;fill-rule:nonzero;stroke:none"
               d="M 310,304.266 H 577.508 V 650 H 310 Z" /></g></g></g></g></g></svg>