<?xml version="1.0" encoding="UTF-8" standalone="no"?>
<svg
   xmlns:dc="http://purl.org/dc/elements/1.1/"
   xmlns:cc="http://creativecommons.org/ns#"
   xmlns:rdf="http://www.w3.org/1999/02/22-rdf-syntax-ns#"
   xmlns:svg="http://www.w3.org/2000/svg"
   xmlns="http://www.w3.org/2000/svg"
   viewBox="0 0 88 84"
   height="84"
   width="88"
   xml:space="preserve"
   id="svg2"
   version="1.1"><metadata
     id="metadata8"><rdf:RDF><cc:Work
         rdf:about=""><dc:format>image/svg+xml</dc:format><dc:type
           rdf:resource="http://purl.org/dc/dcmitype/StillImage" /></cc:Work></rdf:RDF></metadata><defs
     id="defs6"><clipPath
       id="clipPath20"
       clipPathUnits="userSpaceOnUse"><path
         style="clip-rule:evenodd"
         id="path18"
         d="M 655.777,303.895 C 655.777,484.004 510.562,630 331.398,630 152.242,630 7,484.004 7,303.895 7,166.176 91.9297,48.3906 211.984,0.582031 L 294.047,209.035 c -37.567,14.953 -64.145,51.777 -64.145,94.86 0,56.343 45.446,102.023 101.496,102.023 56.051,0 101.497,-45.68 101.497,-102.023 0,-43.083 -26.606,-79.907 -64.145,-94.86 L 450.789,0.582031 C 570.871,48.3906 655.777,166.176 655.777,303.895 Z" /></clipPath><clipPath
       id="clipPath26"
       clipPathUnits="userSpaceOnUse"><path
         id="path24"
         d="M 0,0 H 660 V 630 H 0 Z" /></clipPath></defs><g
     transform="matrix(1.3333333,0,0,-1.3333333,0,84)"
     id="g10"><g
       transform="scale(0.1)"
       id="g12"><g
         id="g14"><g
           clip-path="url(#clipPath20)"
           id="g16"><g
             clip-path="url(#clipPath26)"
             id="g22"><path
               id="path28"
               style="fill:#68767f;fill-opacity:1;fill-rule:nonzero;stroke:none"
               d="M 0,0 H 705.777 V 680 H 0 Z" /></g></g></g></g></g></svg>