<?xml version="1.0" encoding="UTF-8" standalone="no"?>
<svg
   xmlns:dc="http://purl.org/dc/elements/1.1/"
   xmlns:cc="http://creativecommons.org/ns#"
   xmlns:rdf="http://www.w3.org/1999/02/22-rdf-syntax-ns#"
   xmlns:svg="http://www.w3.org/2000/svg"
   xmlns="http://www.w3.org/2000/svg"
   viewBox="0 0 109.33333 90.666664"
   height="90.666664"
   width="109.33333"
   xml:space="preserve"
   id="svg2"
   version="1.1"><metadata
     id="metadata8"><rdf:RDF><cc:Work
         rdf:about=""><dc:format>image/svg+xml</dc:format><dc:type
           rdf:resource="http://purl.org/dc/dcmitype/StillImage" /></cc:Work></rdf:RDF></metadata><defs
     id="defs6"><clipPath
       id="clipPath20"
       clipPathUnits="userSpaceOnUse"><path
         style="clip-rule:evenodd"
         id="path18"
         d="m 206,340 c 0,-75.004 60.996,-136 136,-136 59.875,0 110.227,39.133 128.352,92.957 L 545.965,340.852 546,340 c 0,-112.676 -91.324,-204 -204,-204 -112.676,0 -204,91.324 -204,204 0,112.676 91.324,204 204,204 36.855,0 71.332,-9.93 101.148,-26.996 L 368.012,473.383 C 359.578,475.016 350.906,476 342,476 266.996,476 206,415.004 206,340 Z m 136,68 c -37.57,0 -68,-30.465 -68,-68 0,-37.535 30.43,-68 68,-68 37.57,0 68,30.465 68,68 l -0.066,0.512 114.238,66.297 c 33.183,19.211 91.937,11.425 126.176,-5.407 L 818,498.746 710.629,552.094 716.375,675.578 548.242,578 C 545.863,539.887 523.289,484.977 490.273,465.766 L 375.254,398.988 C 365.391,404.531 354.137,408 342,408 Z M 613.828,343.027 614,340 C 614,190.027 491.973,68 342,68 192.027,68 70,190.027 70,340 c 0,149.973 122.027,272 272,272 50.148,0 97.004,-13.871 137.395,-37.637 11.355,19.922 14.55,52.496 4.964,74.117 C 441.008,668.508 392.898,680 342,680 154.219,680 2,527.781 2,340 2,152.219 154.219,0 342,0 c 177.922,0 323.715,136.715 338.539,310.828 -10.234,16.422 -36.246,36.074 -66.711,32.199 z" /></clipPath><clipPath
       id="clipPath26"
       clipPathUnits="userSpaceOnUse"><path
         id="path24"
         d="M 0,0 H 820 V 680 H 0 Z" /></clipPath></defs><g
     transform="matrix(1.3333333,0,0,-1.3333333,0,90.666667)"
     id="g10"><g
       transform="scale(0.1)"
       id="g12"><g
         id="g14"><g
           clip-path="url(#clipPath20)"
           id="g16"><g
             clip-path="url(#clipPath26)"
             id="g22"><path
               id="path28"
               style="fill:#68767f;fill-opacity:1;fill-rule:nonzero;stroke:none"
               d="M 0,0 H 868 V 730 H 0 Z" /></g></g></g></g></g></svg>