<?xml version="1.0" encoding="UTF-8" standalone="no"?>
<svg
   xmlns:dc="http://purl.org/dc/elements/1.1/"
   xmlns:cc="http://creativecommons.org/ns#"
   xmlns:rdf="http://www.w3.org/1999/02/22-rdf-syntax-ns#"
   xmlns:svg="http://www.w3.org/2000/svg"
   xmlns="http://www.w3.org/2000/svg"
   viewBox="0 0 96 97.333336"
   height="97.333336"
   width="96"
   xml:space="preserve"
   id="svg2"
   version="1.1"><metadata
     id="metadata8"><rdf:RDF><cc:Work
         rdf:about=""><dc:format>image/svg+xml</dc:format><dc:type
           rdf:resource="http://purl.org/dc/dcmitype/StillImage" /></cc:Work></rdf:RDF></metadata><defs
     id="defs6"><clipPath
       id="clipPath20"
       clipPathUnits="userSpaceOnUse"><path
         style="clip-rule:evenodd"
         id="path18"
         d="M 676,426 H 386 v 141 c 0,86 -73,156 -163,156 H 170 C 80,723 6,653 6,567 V 384 h 98 v 183 c 0,32 29,58 66,58 h 53 c 36,0 66,-26 66,-58 V 426 h -32 c -21,0 -38,-17 -38,-38 V 41 C 219,20 236,3 257,3 h 420 c 21,0 38,17 38,38 v 347 c -1,21 -18,38 -39,38 z M 528,121 H 421 l 29,85 c -17,9 -29,27 -29,48 0,30 24,54 54,54 30,0 54,-24 54,-54 0,-21 -12,-39 -29,-48 l 28,-85 z" /></clipPath><clipPath
       id="clipPath26"
       clipPathUnits="userSpaceOnUse"><path
         id="path24"
         d="M 0,0 H 720 V 730 H 0 Z" /></clipPath></defs><g
     transform="matrix(1.3333333,0,0,-1.3333333,0,97.333333)"
     id="g10"><g
       transform="scale(0.1)"
       id="g12"><g
         id="g14"><g
           clip-path="url(#clipPath20)"
           id="g16"><g
             clip-path="url(#clipPath26)"
             id="g22"><path
               id="path28"
               style="fill:#68767f;fill-opacity:1;fill-rule:nonzero;stroke:none"
               d="M 0,0 H 765 V 773 H 0 Z" /></g></g></g></g></g></svg>