<?xml version="1.0" encoding="UTF-8" standalone="no"?>
<svg width="18px" height="17px" viewBox="0 0 18 17" version="1.1" xmlns="http://www.w3.org/2000/svg" xmlns:xlink="http://www.w3.org/1999/xlink" xmlns:sketch="http://www.bohemiancoding.com/sketch/ns">
    <!-- Generator: Sketch 3.4.4 (17249) - http://www.bohemiancoding.com/sketch -->
    <title>icon-risk</title>
    <desc>Created with Sketch.</desc>
    <defs></defs>
    <g id="Page-1" stroke="none" stroke-width="1" fill="none" fill-rule="evenodd" sketch:type="MSPage">
        <path d="M15.0988631,11.5831665 L15.0988631,4.19959274 L15.5576447,3.91735958 C15.558561,5.53745121 15.5460377,9.10904463 15.5460377,11.2260988 C15.5454268,11.2548108 15.56131,11.2789411 15.5600882,11.2987952 L15.0988631,11.5831665 Z M12.8330562,1.93531308 C12.8306126,1.91759715 12.8278636,1.89927032 12.8257254,1.87880536 L14.1721364,1.02996776 L15.5197692,1.87941626 C15.5167147,1.89865943 15.5145766,1.91759715 15.5115221,1.93531308 L14.1721364,2.75268963 L12.8330562,1.93531308 Z M12.0312574,14.0047514 L9.88915663,12.7658578 L11.5697268,11.7942304 L13.7099949,13.0322077 L12.0312574,14.0047514 Z M9.00427626,15.7586289 L6.86034278,14.5179026 L9.01924317,13.2692347 L11.1619549,14.5084337 L9.00427626,15.7586289 Z M4.31108094,13.0422875 L6.46906499,11.7942304 L8.14932971,12.7658578 L5.99073477,14.0145257 L4.31108094,13.0422875 Z M2.52604785,6.43027321 C2.52299338,6.41286272 2.52085525,6.39361955 2.51871712,6.37468183 L3.86512812,5.52492788 L5.21184456,6.37468183 C5.20970643,6.39361955 5.2075683,6.41286272 5.20451383,6.42966231 L3.86512812,7.24764975 L2.52604785,6.43027321 Z M5.25307993,11.3250636 L4.79032751,11.6021042 L4.79032751,8.65515018 L5.25002545,8.37963686 C5.25002545,9.16982861 5.23902936,10.3647378 5.23902936,11.2722213 C5.23841846,11.2920753 5.25369082,11.3097913 5.25307993,11.3250636 L5.25307993,11.3250636 Z M6.44768369,8.83230952 L6.78581368,9.02749024 L6.78581368,10.6048193 L6.46906499,10.7880876 L6.10894281,10.5797726 C6.10833192,10.1426778 6.10741558,9.56477176 6.10680468,9.02932293 L6.44768369,8.83230952 Z M9.01863228,3.27744782 L10.3653487,4.12720176 C10.3638215,4.14613949 10.3610725,4.16507721 10.358018,4.18279314 L9.01863228,5.00078059 L7.67955201,4.18279314 C7.67649754,4.16507721 7.67435941,4.14613949 7.67222128,4.12720176 L9.01863228,3.27744782 Z M10.3742067,11.2438147 C10.3735958,11.2694723 10.3625997,11.2905481 10.3616834,11.3088749 L9.87205159,11.5904972 L9.87205159,6.43180044 L10.3674868,6.15262175 C10.3674868,7.41350755 10.3742067,9.79752248 10.3742067,11.2438147 L10.3742067,11.2438147 Z M11.2520618,9.02840658 L11.5825556,8.83719667 L11.9393178,9.04428984 L11.9393178,10.5739691 L11.5697268,10.7877821 L11.2517563,10.6042084 C11.2517563,10.2074325 11.2517563,9.64296623 11.2520618,9.02840658 L11.2520618,9.02840658 Z M16.4171729,10.635364 C16.4159511,8.75594773 16.4122858,3.10273205 16.411064,3.06791108 L16.4037332,1.85009333 C16.4037332,1.85223146 16.4031223,1.85406414 16.4031223,1.85620227 L16.4031223,1.85009333 C16.3982352,1.91393178 16.3909045,1.98021381 16.3805193,2.04588495 C16.3753267,2.07704056 16.3664687,2.10636348 16.3597489,2.13660275 C16.4251145,1.79908366 16.4015951,1.40597319 16.4015951,1.40597319 L14.1721364,0 L11.9435941,1.40597319 C11.9435941,1.40597319 11.9280163,1.67965383 11.9600882,1.96646869 C11.9548956,1.92737146 11.9451213,1.88827422 11.9423723,1.85009333 L11.9399287,3.10670287 C11.9396233,3.13052774 11.9393178,5.78028169 11.9393178,8.03723061 L11.2520618,7.63862209 C11.2520618,6.42966231 11.2520618,5.37189886 11.2517563,5.35357203 L11.2499236,4.30527745 L11.2502291,4.09787884 C11.2502291,4.09971152 11.2496182,4.10184965 11.2496182,4.10398778 L11.2496182,4.09787884 C11.2453419,4.15469201 11.2380112,4.21394875 11.2294587,4.2725946 C11.2242661,4.30558289 11.2163245,4.33643306 11.2092992,4.36881045 C11.2709995,4.03465128 11.248091,3.65345325 11.248091,3.65345325 L9.01863228,2.24748006 L6.79100628,3.65345325 C6.79100628,3.65345325 6.75954522,4.15835737 6.86248091,4.51511963 C6.82185644,4.3846937 6.79803156,4.23594095 6.78795181,4.09787884 L6.78642457,5.35357203 C6.78581368,5.37189886 6.78581368,6.4250806 6.78550823,7.63068047 L6.104972,8.02409639 C6.10466655,7.73269981 6.10436111,7.54118446 6.10405566,7.53232649 L6.09672493,6.3453589 C6.09031054,6.42782963 6.07687086,6.51304938 6.05946038,6.5967419 C6.11657899,6.26716443 6.0945868,5.90032242 6.0945868,5.90032242 L3.86512812,4.49496012 L1.63658578,5.90032242 C1.63658578,5.90032242 1.60573562,6.40400475 1.70836586,6.76107246 C1.66804684,6.63125742 1.64452741,6.48311556 1.63444765,6.3453589 L1.63292041,7.6010521 C1.63200407,7.6328186 1.63200407,9.60875615 1.63230952,10.6100119 L0,11.5535381 L9.00427626,16.7650772 L18,11.5535381 L16.4171729,10.635364 Z" id="icon-risk" fill="#FFFFFF" sketch:type="MSShapeGroup"></path>
    </g>
</svg>