<?xml version="1.0" encoding="UTF-8" standalone="no"?>
<svg width="19px" height="17px" viewBox="0 0 19 17" version="1.1" xmlns="http://www.w3.org/2000/svg" xmlns:xlink="http://www.w3.org/1999/xlink" xmlns:sketch="http://www.bohemiancoding.com/sketch/ns">
    <!-- Generator: Sketch 3.4.4 (17249) - http://www.bohemiancoding.com/sketch -->
    <title>icon-community</title>
    <desc>Created with Sketch.</desc>
    <defs></defs>
    <g id="Page-1" stroke="none" stroke-width="1" fill="none" fill-rule="evenodd" sketch:type="MSPage">
        <path d="M13.0368983,11.0606521 L6.08032203,15.8585751 C5.96116949,15.9197097 5.83815254,15.9494597 5.70611864,15.9494597 C5.58181356,15.9494597 5.45879661,15.9236328 5.34833898,15.8866905 L5.34833898,6.82372898 L13.0368983,2.20953667 L13.0368983,11.0606521 Z M16.2127966,0.258786668 C15.5011017,-0.285867178 14.5089153,0.169209745 14.1640169,0.357517438 L14.1640169,0.353594361 L4.34520339,6.24311359 L4.34520339,6.24703667 L0,2.37169051 L0,12.6298828 L4.34520339,16.505229 L4.34520339,16.5013059 C4.34520339,16.5013059 4.94161017,16.9681521 5.70611864,16.9681521 C5.98886441,16.9681521 6.29415254,16.9044021 6.60201695,16.7288444 L14.0464746,11.6039982 L16.2127966,13.0816905 L18.7198305,14.7914982 L18.7198305,1.96859436 L16.2127966,0.258786668 Z M10.700478,7.38551359 C10.7616644,7.45612898 10.8479695,7.44664821 10.8943424,7.36589821 L11.3055797,6.6362059 C11.3519525,6.5554559 11.3397153,6.43155205 11.2794949,6.36159051 L10.6331729,5.61457128 C10.5723085,5.54493667 10.4847153,5.55343667 10.4393085,5.63418667 L10.0274271,6.36387898 C9.98169831,6.44560975 9.99393559,6.56885975 10.055122,6.63947513 L10.700478,7.38551359 Z M7.13208475,12.9107424 L8.08111864,12.215704 C8.15615254,12.1614347 8.25437288,12.049954 8.29977966,11.969204 L10.4947627,8.07980013 C10.5404915,7.99839628 10.5282542,7.87514628 10.4677119,7.80518475 L9.81945763,7.05587705 C9.75923729,6.98624244 9.67261017,6.99474244 9.62623729,7.07549244 L7.43125424,10.9671847 C7.38488136,11.0479347 7.33367797,11.1891655 7.3169322,11.2810309 L7.02710169,12.8433963 C7.0100339,12.9349347 7.05705085,12.9656655 7.13208475,12.9107424" id="icon-community" fill="#FFFFFF" sketch:type="MSShapeGroup"></path>
    </g>
</svg>