<?xml version="1.0" encoding="UTF-8" standalone="no"?>
<svg width="13px" height="15px" viewBox="0 0 13 15" version="1.1" xmlns="http://www.w3.org/2000/svg" xmlns:xlink="http://www.w3.org/1999/xlink" xmlns:sketch="http://www.bohemiancoding.com/sketch/ns">
    <!-- Generator: Sketch 3.4.4 (17249) - http://www.bohemiancoding.com/sketch -->
    <title>icon-open</title>
    <desc>Created with Sketch.</desc>
    <defs></defs>
    <g id="Page-1" stroke="none" stroke-width="1" fill="none" fill-rule="evenodd" sketch:type="MSPage">
        <path d="M6.44728632,0.967058824 L11.9662197,2.87147059 C11.9405085,3.02176471 11.9009308,3.14117647 11.858753,3.18852941 L6.44728632,4.99705882 L1.03581966,3.18852941 C0.99364188,3.14117647 0.954064103,3.02117647 0.927775214,2.87147059 L6.44728632,0.967058824 Z M0.000730769231,4.93705882 C0.0180641026,5.37352941 0.131597436,5.80058824 0.666908547,6.06176471 L6.44728632,7.99294118 L12.2276641,6.06176471 C12.7629752,5.80058824 12.8759308,5.37352941 12.8938419,4.93705882 C12.8938419,4.93705882 12.8958641,4.67941176 12.8923974,4.61235294 L12.8877752,2.71382353 C12.9053974,2.43235294 12.8819974,2.22058824 12.8819974,2.22058824 L6.44728632,0 L0.0125752137,2.22058824 C0.0125752137,2.22058824 -0.0108247863,2.43235294 0.0067974359,2.71411765 L0.00217521368,4.61235294 C-0.00129145299,4.67941176 0.000730769231,4.93705882 0.000730769231,4.93705882 Z M12.8876308,6.11811765 C12.8321641,6.53252941 12.647853,7.01458824 12.2275197,7.21929412 L11.3651863,7.50811765 L11.3672085,7.50929412 L6.44714188,9.13370588 L1.52678632,7.50929412 L1.52938632,7.50811765 L0.667052991,7.21929412 C0.246719658,7.01458824 0.0615418803,6.53252941 0.00694188034,6.11811765 L0.00203076923,8.10164706 C-0.00143589744,8.16929412 0.000586324786,8.42635294 0.000586324786,8.42635294 C0.0179196581,8.86252941 0.13174188,9.28958824 0.667052991,9.55164706 L6.44714188,11.4822353 L12.2275197,9.55164706 C12.7628308,9.28958824 12.8757863,8.86252941 12.8939863,8.42635294 C12.8939863,8.42635294 12.8960085,8.16929412 12.8925419,8.10164706 L12.8876308,6.11811765 Z M12.8876308,9.60729412 C12.8321641,10.0217059 12.647853,10.5037647 12.2275197,10.7090588 L11.3651863,10.9978824 L11.3672085,10.9984706 L6.44714188,12.6228824 L1.52678632,10.9984706 L1.52938632,10.9978824 L0.667052991,10.7090588 C0.246719658,10.5037647 0.0615418803,10.0217059 0.00694188034,9.60729412 L0.00203076923,11.5908235 C-0.00143589744,11.6584706 0.000586324786,11.9155294 0.000586324786,11.9155294 C0.0179196581,12.3525882 0.13174188,12.7787647 0.667052991,13.0408235 L6.44714188,14.972 L12.2275197,13.0408235 C12.7628308,12.7787647 12.8757863,12.3525882 12.8939863,11.9155294 C12.8939863,11.9155294 12.8960085,11.6584706 12.8925419,11.5908235 L12.8876308,9.60729412 Z" id="icon-open" fill="#FFFFFF" sketch:type="MSShapeGroup"></path>
    </g>
</svg>